<?xml version="1.0" encoding="UTF-8"?>
<svg version="1.1" viewBox="0 0 1860 1020" width="465" height="255" xmlns="http://www.w3.org/2000/svg">
<path transform="translate(180,684)" d="m0 0h1424l1 1v13l-1 1h-1424l-1-3v-10z" fill="#E98168"/>
<path transform="translate(1190,266)" d="m0 0h43l3 2 9 55 10 51 2 16v5l3-1 7-41 8-49 5-33 2-5h43l2 1 1 6-1 182h-30l-1-1-1-124-2-1-2 19-6 39-8 49-2 17-3 2h-29l-2-7-16-86-5-26-1-3v121l-1 1h-28l-1-141v-46z" fill="#E98168"/>
<path transform="translate(1503,266)" d="m0 0h61l13 3 9 6 8 9 4 9 1 4 1 13v15l-1 15-3 8-9 10-6 4 15 15 3 7 1 10 1 48 2 13h-34l-1-6-2-54-4-10-4-4-5-2-7-1h-11v76l-1 1-31 1-1-1v-188zm33 26-1 1v59h19l7-3 4-6 2-8v-26l-3-9-4-5-5-2-8-1z" fill="#E98168"/>
<path transform="translate(1092,265)" d="m0 0h10l14 1 9 2 8 6 7 8 6 12 2 12v107l-2 14-4 9-7 8-7 6-11 5-9 2-13 1-14-2-12-5-11-10-7-12-2-7-1-24v-48l1-51 4-11 7-10 7-7 8-4 4-1zm4 25-7 2-6 7-2 8v112l3 6 5 4 4 2h10l8-5 4-7 1-21v-88l-2-9-6-8-7-3z" fill="#E98168"/>
<path transform="translate(653,266)" d="m0 0h30l2 6v142l2 8 2 4 5 3 10 1 7-3 5-5 2-7 1-149h29l2 2v136l-2 22-4 10-6 8-7 7-8 4-15 3h-16l-13-3-9-5-8-7-6-9-3-9-1-5v-153z" fill="#E98168"/>
<path transform="translate(553,265)" d="m0 0h13l16 1 10 3 8 6 8 11 4 11 2 21v12l-1 1h-31l-1-24-3-10-5-5-2-1h-10l-7 3-5 9v116l4 6 6 4 9 1 7-3 4-4 2-8 1-30h30l1 1v28l-2 13-6 12-8 9-10 6-12 3-7 1h-11l-14-3-10-5-5-4-8-11-4-10-1-6v-114l2-13 6-11 7-8 9-6 3-1z" fill="#E98168"/>
<path transform="translate(820,266)" d="m0 0h34l11 4 6 5 9 13 3 8 2 11v10l-2 1h-26l-2-1-4-18-5-6-10-2-8 2-4 5-3 10 1 10 4 9 7 9 12 12 11 8 11 10 10 13 5 11 3 14v15l-3 12-6 10-8 8-12 6-14 3h-13l-14-3-8-4-8-7-7-11-4-11-1-8v-14l1-2 3-1h22l5 1 1 7v9l2 9 4 4 10 3 9-2 5-5 2-3 1-11-2-9-6-10-11-12-13-10-20-20-7-12-4-12-1-5v-15l3-12 6-11 9-9 10-5z" fill="#E98168"/>
<path transform="translate(1373,266)" d="m0 0h86l2 1v25l-45 1h-12l1 4-1 49h43l2 1v27l-44 1v53h54l2 1v25l-1 1h-88v-188z" fill="#E98168"/>
<path transform="translate(1322,495)" d="m0 0h36l13 2 12 6 6 7 3 8 1 7v14l-2 9-6 9-5 6 5 5 8 9 2 6v30l-3 10-7 10-5 3-12 3-12 1h-38l-1-1v-143zm22 21-2 4v32l3 3 11-1 7-3 4-5 1-3v-15l-3-8-4-3-3-1zm-2 59v41l2 4h13l9-3 3-3 1-4v-18l-2-12-5-5z" fill="#E98168"/>
<path transform="translate(628,495)" d="m0 0h31l13 2 10 5 7 6 3 7 1 5v29l-4 11-7 8 1 4 7 8 3 9 1 16 1 33-2 2h-15l-7-1-2-2-1-15-1-32-4-5-4-2-16-1v57l-1 1h-20l-4-1-1-14v-128l1-1zm16 21-1 1v43l3 1h11l7-3 4-7v-26l-4-7-4-2z" fill="#E98268"/>
<path transform="translate(895,495)" d="m0 0h39l12 2 10 4 7 6 4 8 1 4v31l-8 16-3 3 2 4 6 7 3 7 1 24v28l-2 1h-19l-3-1-1-3-1-35-2-11-3-5-9-3h-7l-3 1-1 55-4 2h-19l-2-1-1-24v-92l1-27zm24 21-1 1v42l3 2h10l7-3 4-5 1-3v-25l-4-6-5-3z" fill="#E98268"/>
<path transform="translate(916,266)" d="m0 0h99l2 7-1 19-12 1h-22l1 4-1 158h-32l-1-162h-32l-2-1v-25z" fill="#E98168"/>
<path transform="translate(1557,494)" d="m0 0h18l10 3 9 6 5 6 4 9 1 7v78l-1 14-4 10-7 8-8 4-9 2h-21l-11-3-8-6-6-10-2-6v-96l3-9 7-8 10-6zm5 19-6 4-3 3-1 4-1 73 1 16 5 6 5 2h7l6-3 3-5 1-5v-83l-4-8-3-3-3-1z" fill="#E98168"/>
<path transform="translate(812,494)" d="m0 0h20l12 4 8 6 6 10 2 8v92l-3 10-6 9-8 5-13 3h-20l-10-3-8-6-6-10-2-6-1-52 1-45 3-8 7-8 11-7zm7 19-6 4-4 6-1 7v77l1 7 4 5 5 2h9l6-4 2-4v-90l-5-8-4-2z" fill="#E98168"/>
<path transform="translate(1435,495)" d="m0 0h32l12 2 8 4 9 8 4 9 2 15v18l-2 13-5 9-8 8-11 4-8 1h-16v52l-5 2h-20l-1-2v-142zm19 21-2 1-1 4v33l1 12 1 1 15-1 5-3 3-5v-34l-4-6-4-2z" fill="#E98168"/>
<path transform="translate(515,495)" d="m0 0h41l13 2 10 6 7 8 3 7 1 6v34l-3 10-6 8-8 6-8 3-19 2h-6v52l-1 1h-16l-8-1zm27 21-2 4v37l1 9h16l6-4 2-10v-22l-2-9-4-4-6-1z" fill="#E98168"/>
<path transform="translate(1152,495)" d="m0 0h24l2 2 6 23 9 31 2 6 3-2 13-45 4-14 1-1h19l4 1-3 11-15 46-11 33-1 5-1 32v15l-5 2h-20l-1-1-1-45-4-17-14-41-11-34-1-6z" fill="#E98168"/>
<path transform="translate(1059,495)" d="m0 0h72l1 1v9l-1 10-9 1h-17v123l-2 1h-22l-1-7v-117h-25l-2-1v-19z" fill="#E98268"/>
<path transform="translate(276,495)" d="m0 0h28l6 3 10 12 4 8v7l-11 24-3 5h-65l-5-5-7-10-1-4 12-20 7-9 8-8 7-2z" fill="#EEAA71"/>
<path transform="translate(340,417)" d="m0 0 5 1 15 15 11 9 6 5 2 3-1 4-3 4h-2l-2 4-10 10-8 10-8 9-3 1-32-5-20-18-3-2 1-4 18-18 9-8 10-8 13-11z" fill="#EEAA71"/>
<path transform="translate(728,495)" d="m0 0h13l10 1 1 1-1 142-5 1h-15l-4-1-1-2v-138z" fill="#E98168"/>
<path transform="translate(1e3 495)" d="m0 0h18l3 1 1 4-1 139-2 1h-20l-2-1-1-4v-139z" fill="#E98168"/>
<path transform="translate(244,352)" d="m0 0h23l7 2-3 17-8 26-8 16-3 4-7-1-13-5-17-10-1-3 13-22 9-14z" fill="#EEAA71"/>
<path transform="translate(393,383)" d="m0 0h3l12 18 12 19v2l-15 9-14 12-3 2-4-1-10-8-7-7-8-7-10-9 4-5 18-11 11-6z" fill="#EEAA71"/>
<path transform="translate(386,458)" d="m0 0 7 1 15 9 13 9 2 4-11 18-8 11-4 3-29-11-18-7 4-7 7-7 9-11 11-11z" fill="#EEAA71"/>
<path transform="translate(347,503)" d="m0 0 14 2 18 6 16 8 1 4-14 22-8 9-2 1h-17l-5-5-8-16-6-11 1-7 5-8z" fill="#EEAA71"/>
<path transform="translate(323,398)" d="m0 0 4 1 8 10-2 4-13 10-16 13-10 9-7 6-6 7-7 1-15-9-13-6 1-5 8-12 5-4 21-1 10-3 17-7 10-9z" fill="#EEAA71"/>
<path transform="translate(238,451)" d="m0 0 8 1 16 7 9 4 2 3-13 16-9 9-25 10-11 5-4-2-8-14 1-5 14-14z" fill="#EEAA71"/>
<path transform="translate(283,353)" d="m0 0h19l3 8 5 13 9 17-2 4-9 8-14 8-14 5-16 2-1-2 8-18 6-18z" fill="#EEAA71"/>
<path transform="translate(358,352)" d="m0 0h15l5 4 7 11 4 7-1 4-28 17-10 6-6 3-5-1-8-10 1-5 8-15 4-13 3-7z" fill="#EEAA71"/>
<path transform="translate(188,437)" d="m0 0 19 1 16 4 6 3v4l-31 31-4-2-13-22 1-9 5-9z" fill="#EEAA71"/>
<path transform="translate(422,426)" d="m0 0 5 4 9 14 4 9-2 6-8 12-3 2-13-9-18-11-1-3 5-6 14-11z" fill="#EEAA72"/>
<path transform="translate(207,407)" d="m0 0 4 1 12 6 19 7 5 2-6 11-4 5-3 1-29-8-10-3 2-6z" fill="#EEAA71"/>
<path transform="translate(312,353)" d="m0 0h25l-2 11-5 12-4 7-3-1-8-16-3-10z" fill="#EEAA71"/>
<path transform="translate(330,530)" d="m0 0 3 1 6 13 2 10-1 1h-15l-8-1 2-5 6-12z" fill="#EEAA72"/>
<path transform="translate(240,503)" d="m0 0h2l-2 4-12 20-2 1-8-14 1-5 10-4z" fill="#EEAA72"/>
<path transform="translate(280,471)" d="m0 0 5 3 9 10v2l-11 2h-16l4-7z" fill="#EEAA72"/>
<path transform="translate(321,498)" d="m0 0 16 1 2 1-2 5-6 8-5-5-5-8z" fill="#EEAD76"/>
<path transform="translate(330,353)" d="m0 0h7l-2 11-3 4-1-3z" fill="#E98669"/>
</svg>
